Coordinates
version=1
nRows=10
nColumns=40
inDegrees=yes

Units are S.I. units (second, meters, Newtons, ...)
Angles are in degrees.

endheader
time	pelvis_tilt	pelvis_list	pelvis_rotation	pelvis_tx	pelvis_ty	pelvis_tz	hip_flexion_r	hip_adduction_r	hip_rotation_r	knee_angle_r	knee_angle_r_beta	ankle_angle_r	subtalar_angle_r	mtp_angle_r	hip_flexion_l	hip_adduction_l	hip_rotation_l	knee_angle_l	knee_angle_l_beta	ankle_angle_l	subtalar_angle_l	mtp_angle_l	lumbar_extension	lumbar_bending	lumbar_rotation	arm_flex_r	arm_add_r	arm_rot_r	elbow_flex_r	pro_sup_r	wrist_flex_r	wrist_dev_r	arm_flex_l	arm_add_l	arm_rot_l	elbow_flex_l	pro_sup_l	wrist_flex_l	wrist_dev_l
      2.87000000	      2.28302400	     -3.60305626	     -2.88991666	      1.04774796	      0.88770123	     -1.00286128	     -8.46056728	      4.74444525	    -12.83365600	    -21.89218544	     -0.38209072	     12.15413165	      3.63042465	     -5.74808066	     21.10429518	      4.19596162	     13.64116984	    -14.13640096	     -0.24672674	      0.13925803	     -3.11725771	     -9.68765911	     -9.17809281	      5.33109291	      6.49675276	     16.28864575	    -11.70875336	     17.82750692	     21.73571378	     89.95437384	      0.00000000	      0.00000000	     -0.17294635	      6.82370673	    -10.11635028	     19.72327209	     89.95437384	      0.00000000	      0.00000000
      2.88000000	      2.05813959	     -3.60074623	     -3.18607292	      1.05507034	      0.88674443	     -1.00308594	     -8.54338236	      4.57093760	    -12.68856927	    -22.25452730	     -0.38841477	     11.92045788	      3.53135203	     -5.66078834	     21.26357032	      4.15586800	     13.39182193	    -14.33809832	     -0.25024702	      0.09704294	     -3.07105754	     -9.52866811	     -8.99070630	      5.28765704	      6.44451657	     16.14203861	    -11.60678089	     17.80052929	     22.06747108	     89.95437384	      0.00000000	      0.00000000	     -0.57982319	      6.77555938	    -10.11136696	     19.75629911	     89.95437384	      0.00000000	      0.00000000
      2.89000000	      1.91598774	     -3.53672949	     -3.73443568	      1.06263995	      0.88615472	     -1.00325230	     -8.76272796	      4.29968194	    -12.03056405	    -22.51415790	     -0.39294618	     11.60685015	      3.78960874	     -5.71890045	     20.72446398	      3.97171709	     12.81568372	    -13.66134716	     -0.23843549	      0.12141472	     -3.54178206	     -9.63056229	     -8.85596320	      5.18857652	      6.78537335	     16.06300258	    -11.57779098	     18.13677379	     21.95470960	     89.95437384	      0.00000000	      0.00000000	     -0.57751978	      6.53587914	    -10.32856229	     18.98680428	     89.95437384	      0.00000000	      0.00000000
      2.90000000	      1.68078971	     -3.50763113	     -4.06070072	      1.07044437	      0.88521837	     -1.00358183	     -8.82177346	      4.06128263	    -11.87264380	    -22.92147358	     -0.40005518	     11.33936266	      3.66623525	     -5.61717969	     20.72592480	      3.88764314	     12.45428274	    -14.10487688	     -0.24617654	     -0.07161020	     -3.45723342	     -9.43858168	     -8.60656801	      5.12728373	      6.74286180	     15.81034019	    -11.49794799	     18.09816730	     22.28314864	     89.95437384	      0.00000000	      0.00000000	     -1.03795004	      6.46643216	    -10.32006052	     19.07348381	     89.95437384	      0.00000000	      0.00000000
      2.91000000	      1.90868425	     -3.25203742	     -4.55262194	      1.07873314	      0.88515598	     -1.00399345	     -9.49303850	      3.47558283	    -11.53194482	    -23.11719286	     -0.40347113	     11.19488501	      4.04164786	     -5.83942116	     19.76794307	      3.44728443	     12.11485372	    -13.81878859	     -0.24118336	     -1.78113701	     -3.27424678	     -9.49092794	     -8.78977732	      4.78974875	      6.98577430	     15.62616655	    -11.49643442	     18.57747700	     22.26584780	     89.95437384	      0.00000000	      0.00000000	     -1.09138511	      6.34251687	    -10.75711644	     18.46925570	     89.95437384	      0.00000000	      0.00000000
      2.92000000	      1.75545048	     -3.10502590	     -4.84926227	      1.08662331	      0.88454959	     -1.00445545	     -9.61235913	      3.11378411	    -11.20210341	    -23.52476956	     -0.41058468	     10.78513508	      4.03196697	     -5.81178974	     19.65677246	      3.17469776	     11.72133359	    -14.18380537	     -0.24755410	     -3.51019271	     -2.77307961	     -9.20327598	     -8.60247066	      4.59794229	      6.96002060	     15.42537394	    -11.38186793	     18.59975128	     22.22939427	     89.95437384	      0.00000000	      0.00000000	     -1.27217774	      6.26901253	    -10.96148456	     18.11619142	     89.95437384	      0.00000000	      0.00000000
      2.93000000	      1.68884915	     -2.74894755	     -5.13544062	      1.09462261	      0.88431360	     -1.00508584	     -9.70885758	      2.50796446	    -10.88008842	    -24.11737023	     -0.42092752	     10.43293822	      3.88517009	     -5.79494722	     19.32999474	      2.64095001	     11.18919497	    -14.17619529	     -0.24742128	     -4.86965855	     -2.39877331	     -9.12505929	     -8.48368579	      4.17094248	      6.92122125	     15.19581680	    -11.22625127	     18.49849870	     22.16070327	     89.95437384	      0.00000000	      0.00000000	     -1.41996425	      6.20678248	    -11.19163467	     17.76156983	     89.95437384	      0.00000000	      0.00000000
      2.94000000	      1.61209638	     -2.45738936	     -5.32567656	      1.10275237	      0.88417794	     -1.00565613	     -9.79832712	      2.02162439	    -10.54660857	    -24.69187124	     -0.43095445	      9.97092640	      3.73531071	     -5.70439643	     19.18732685	      2.26684836	     10.97608995	    -14.56737241	     -0.25424861	     -5.42451738	     -2.00270065	     -8.99967168	     -8.34016183	      3.80288509	      6.75389391	     14.96218445	    -11.03507610	     18.44713534	     21.99783273	     89.95437384	      0.00000000	      0.00000000	     -1.58235179	      6.18612194	    -11.38912843	     17.39855066	     89.95437384	      0.00000000	      0.00000000
      2.95000000	      1.55192017	     -2.15023791	     -5.47016633	      1.11110225	      0.88426648	     -1.00626865	     -9.84708950	      1.49953188	    -10.39049543	    -25.37553196	     -0.44288658	      9.35473495	      3.46620321	     -5.57640806	     18.94709867	      1.89090328	     11.17125714	    -14.81941149	     -0.25864752	     -5.49361478	     -1.37646837	     -8.90901435	     -8.18085994	      3.43602713	      6.52114899	     14.69259960	    -10.80165113	     18.30824276	     21.78446862	     89.95437384	      0.00000000	      0.00000000	     -1.73026862	      6.18212140	    -11.64241620	     16.99959999	     89.95437384	      0.00000000	      0.00000000
      2.96000000	      1.36762744	     -2.06916026	     -5.47827860	      1.11960538	      0.88436529	     -1.00679884	     -9.85268707	      1.33043485	    -10.15900117	    -25.92722277	     -0.45251540	      8.97281267	      3.32624389	     -5.45392174	     18.89024171	      1.77487682	     11.04569079	    -15.28324645	     -0.26674297	     -5.43970141	     -1.21658531	     -8.72636908	     -7.89927014	      3.29716075	      6.29214963	     14.14035080	    -10.73694633	     18.22971557	     21.97097213	     89.95437384	      0.00000000	      0.00000000	     -2.07408992	      6.24217475	    -11.63016509	     17.15873625	     89.95437384	      0.00000000	      0.00000000
